<svg xmlns="http://www.w3.org/2000/svg" viewBox="0 0 11.8 13.36"><g id="Слой_2" data-name="Слой 2"><g id="Слой_1-2" data-name="Слой 1"><path d="M8.09,0a3.66,3.66,0,0,1,2.62,1.16A3.61,3.61,0,0,1,11.8,3.83a3.6,3.6,0,0,1-1,2.56,4.06,4.06,0,0,1-2.6,1.25s-1.1,0-3.25,0v4.69a.87.87,0,0,1-.28.67.91.91,0,0,1-.67.29A.87.87,0,0,1,3.3,13,.87.87,0,0,1,3,12.36V1A.93.93,0,0,1,3.3.31.9.9,0,0,1,4,0ZM7.94,5.77A1.89,1.89,0,0,0,9.33,5.2a2,2,0,0,0,.59-1.37,2,2,0,0,0-.59-1.35,1.88,1.88,0,0,0-1.39-.53h-3V5.77Z"/><path d="M0,.93A.91.91,0,0,1,.29.27.9.9,0,0,1,1,0a1,1,0,0,1,.67.27,1,1,0,0,1,.27.66V12.41a.9.9,0,0,1-.27.67.91.91,0,0,1-.67.29.87.87,0,0,1-.67-.29A.87.87,0,0,1,0,12.41Z"/></g></g></svg>