<svg
    xmlns="http://www.w3.org/2000/svg" viewBox="0 0 108.84 14.35"  fill="currentColor">
    <g id="Слой_2" data-name="Слой 2">
        <path d="M19.24,0a1,1,0,0,1,.6.34.94.94,0,0,1-.4,1.54,2.87,2.87,0,0,0-1.88,2.66s0,.1,0,.17H19a1.88,1.88,0,0,1,.39,0,.92.92,0,0,1,.73,1,.94.94,0,0,1-.94.83H17.51c0,.07,0,.13,0,.2q0,3.24,0,6.48a1,1,0,1,1-1.9,0q0-3.25,0-6.51V6.6h-.18a9.36,9.36,0,0,1-1,0,.91.91,0,0,1-.77-.94.91.91,0,0,1,.84-.92c.3,0,.61,0,.91,0h.15a10.73,10.73,0,0,1,.16-1.17A4.64,4.64,0,0,1,18.86.06L19.09,0Z"/>
        <path d="M43.09,6a3.59,3.59,0,0,1,1.15-.91,3.84,3.84,0,0,1,5.45,2.65,5.34,5.34,0,0,1,.09,1.09c0,1.5,0,3,0,4.51a1,1,0,0,1-.79.93.94.94,0,0,1-1-.62,1.21,1.21,0,0,1-.05-.37q0-2.37,0-4.74a1.94,1.94,0,0,0-3.87,0c0,1.6,0,3.21,0,4.81a.94.94,0,0,1-1.81.39,1.08,1.08,0,0,1-.07-.41c0-1.61,0-3.22,0-4.83a1.91,1.91,0,0,0-1.75-1.85A1.94,1.94,0,0,0,38.3,8.22a2,2,0,0,0,0,.34q0,2.38,0,4.77a.94.94,0,0,1-.81,1,1,1,0,0,1-1.1-.78,1.1,1.1,0,0,1,0-.24q0-2.38,0-4.75a3.8,3.8,0,0,1,2.79-3.65,3.74,3.74,0,0,1,3.51.69C42.79,5.71,42.93,5.86,43.09,6Z"/>
        <path d="M67.76,8.58v.21c0,1.47,0,2.94,0,4.41a1,1,0,1,1-2,0q0-5.6,0-11.2a.9.9,0,0,1,.92-1H71a3.84,3.84,0,0,1,3.67,3.21A3.75,3.75,0,0,1,71.3,8.55l-.4,0H67.76Zm.05-5.69V6.69h3a1.85,1.85,0,0,0,1.44-.62,1.81,1.81,0,0,0,.39-2A1.88,1.88,0,0,0,70.9,2.88H67.82Z"/>
        <path d="M101.35,10.41a2.8,2.8,0,0,0,1.49,1.67,3.7,3.7,0,0,0,1.44.28,3.18,3.18,0,0,0,1.89-.56.77.77,0,0,1,.77,0,.89.89,0,0,1,.28,1.47,2.66,2.66,0,0,1-.69.47c-.38.18-.78.32-1.18.47l-.1,0a10.74,10.74,0,0,1-2.24-.11,4.77,4.77,0,1,1,5.77-5.39,3.54,3.54,0,0,1,0,.91.88.88,0,0,1-.9.78h-6.58Zm.06-1.92h5.39a2.71,2.71,0,0,0-2.66-1.93A2.78,2.78,0,0,0,101.41,8.49Z"/>
        <path d="M86.66,13.28a4.29,4.29,0,0,1-1.41.77,4.69,4.69,0,0,1-5.93-3A4.83,4.83,0,0,1,82.9,4.82a4.64,4.64,0,0,1,5.63,3.82,4.78,4.78,0,0,1,.06.76c0,1.31,0,2.63,0,3.94a.91.91,0,0,1-.77.91,1,1,0,0,1-1.12-.72C86.69,13.46,86.68,13.38,86.66,13.28Zm-2.76-.94a2.78,2.78,0,0,0,2.82-2.76,2.88,2.88,0,0,0-2.75-3,3,3,0,0,0-3,3A2.87,2.87,0,0,0,83.9,12.34Z"/>
        <path d="M58.36,13.31a3.88,3.88,0,0,1-1.3.73A4.75,4.75,0,0,1,52.21,13a4.34,4.34,0,0,1-1.43-2.91,4.81,4.81,0,0,1,4.11-5.23,4.74,4.74,0,0,1,3.36.68A4.49,4.49,0,0,1,60.3,8.9a19.84,19.84,0,0,1,0,2.05c0,.52,0,1,0,1.56,0,.26,0,.52,0,.78a.92.92,0,0,1-.72,1,1,1,0,0,1-1.12-.59A3.4,3.4,0,0,1,58.36,13.31Zm-2.77-.94a2.8,2.8,0,0,0,2.84-2.75,2.89,2.89,0,0,0-2.76-3,3,3,0,0,0-3,3A2.86,2.86,0,0,0,55.59,12.36Z"/>
        <path d="M25,14.25a4.83,4.83,0,0,1-4.78-4.89A4.83,4.83,0,0,1,25,4.7a4.77,4.77,0,1,1,0,9.55ZM22.16,9.47A2.87,2.87,0,1,0,25,6.6,2.89,2.89,0,0,0,22.16,9.47Z"/>
        <path d="M12.53,11.19c0,.7,0,1.41,0,2.11a.91.91,0,0,1-.51.84.89.89,0,0,1-.94,0,.92.92,0,0,1-.45-.81c0-1.34,0-2.68,0-4A2.83,2.83,0,0,0,8.21,6.63,2.86,2.86,0,0,0,4.94,9a2.45,2.45,0,0,0,0,.4c0,1.28,0,2.56,0,3.84a1,1,0,0,1-1.1,1,1,1,0,0,1-.8-1C3,12,3,10.79,3,9.54a4.54,4.54,0,0,1,.64-2.48,4.63,4.63,0,0,1,3.7-2.35,4.76,4.76,0,0,1,5.14,4,6.91,6.91,0,0,1,.05.88C12.54,10.12,12.53,10.66,12.53,11.19Z"/>
        <path d="M89.64,9.41a4.7,4.7,0,0,1,4-4.66A4.91,4.91,0,0,1,98.49,7a1,1,0,0,1-.73,1.48A.92.92,0,0,1,96.85,8a2.73,2.73,0,0,0-2.94-1.39,2.88,2.88,0,0,0,0,5.69,2.77,2.77,0,0,0,2.85-1.26,1,1,0,0,1,.93-.46.83.83,0,0,1,.74.53,1,1,0,0,1-.09,1,4.45,4.45,0,0,1-3.19,2.07A4.76,4.76,0,0,1,89.68,10C89.66,9.81,89.65,9.61,89.64,9.41Z"/>
        <path d="M61.43,7q0-2.6,0-5.2a1,1,0,0,1,.81-1,1,1,0,0,1,1.1.82,2,2,0,0,1,0,.22q0,5.11,0,10.21c0,.37.13.51.5.54a.87.87,0,0,1,0,1.74,2.29,2.29,0,0,1-1.67-.48,2.08,2.08,0,0,1-.76-1.43,4.19,4.19,0,0,1,0-.55Q61.43,9.44,61.43,7Z"/>
        <path d="M75.81,7q0-2.62,0-5.23a1,1,0,0,1,.8-1,1,1,0,0,1,1.11.93c0,.05,0,.11,0,.16q0,5.09,0,10.18c0,.38.13.51.5.54a.87.87,0,0,1,0,1.74,2.16,2.16,0,0,1-2.42-2.25Q75.81,9.54,75.81,7Z"/>
        <path d="M0,1.88A.94.94,0,0,1,1,.9a.93.93,0,0,1,1,1Q2,7.6,2,13.33a1,1,0,0,1-1.08,1,1,1,0,0,1-.88-1C0,12.7,0,3.79,0,1.88Z"/>
        <path d="M30.73,11.26c0-.64,0-1.28,0-1.92A4.56,4.56,0,0,1,32.23,6a4.54,4.54,0,0,1,3.25-1.3.93.93,0,0,1,1,.73,1,1,0,0,1-.91,1.17,2.84,2.84,0,0,0-2.76,2.14,5.08,5.08,0,0,0-.11,1.13c0,1.12,0,2.24,0,3.36a1,1,0,0,1-.76,1,.92.92,0,0,1-1.17-.93Q30.73,12.3,30.73,11.26Z"/>
    </g>
</svg>